# xmcd
#
# Track frame offsets:
# 150
# 10822
# 19255
# 40660
# 51732
# 63012
# 73265
# 84617
# 95407
# 104555
# 115590
# 129125
# 142370
# 154060
# 165077
#
# Disc length: 2363 seconds
#
#
# Revision: 0
# Processed by: cddbd v1.5.2PL0 Copyright (c) Steve Scherf et al.
# Submitted via: FreeRIP 2.95 
#
DISCID=c509390f
DTITLE=Living The Blues  New Orleans  CD 2
DYEAR=1900
DGENRE=Blues
TTITLE0=Roy Brown  Saturday Night
TTITLE1=Big Boy Miles  Who's Been Fooling You
TTITLE2=Smili'n Joe  ABC's Pts. 1&2
TTITLE3=Joan Scott  Mighty  Long Road
TTITLE4=Wee willie Wayne  Travelin' Mood
TTITLE5=Boozoo Chavis  Papaer In My Shoe
TTITLE6=Smiley Lewis  Bumpity Bump
TTITLE7=Edgar Blanchard  Sweet Sue
TTITLE8=Professor Lonhair  Missery
TTITLE9=Bobby Mitchell  I'm gonna Be A Wheel Someday
TTITLE10=Boogie Jake  Bad Luck And Trouble
TTITLE11=Irma Thomas  I Done Got Over It
TTITLE12=Ernie K. Doe MOther-In-Love
TTITLE13=Eskw Reeder  I Waited Too Long
TTITLE14=Earl King  Trick Bag
EXTD=
EXTT0=
EXTT1=
EXTT2=
EXTT3=
EXTT4=
EXTT5=
EXTT6=
EXTT7=
EXTT8=
EXTT9=
EXTT10=
EXTT11=
EXTT12=
EXTT13=
EXTT14=
PLAYORDER=
